<svg version="1.1" xmlns="http://www.w3.org/2000/svg" xmlns:xlink="http://www.w3.org/1999/xlink" width="5000.000000pt" height="5000.000000pt" viewBox="0,0,256,256"><g fill="#df1c26" fill-rule="nonzero" stroke="none" stroke-width="1" stroke-linecap="butt" stroke-linejoin="miter" stroke-miterlimit="10" stroke-dasharray="" stroke-dashoffset="0" font-family="none" font-weight="none" font-size="none" text-anchor="none" style="mix-blend-mode: normal"><g transform="translate(0,0)"><g transform="translate(-75.008,-75.008) scale(1.586,1.586)"><g><g transform="translate(0.11849,0.08579) scale(0.0512,0.0512)"><g transform="translate(0,5000) scale(0.1,-0.1)"><path d="M23724,40899c11,-47 45,-297 65,-469c49,-426 56,-559 56,-1130c0,-571 -7,-704 -56,-1130c-134,-1168 -479,-2340 -1033,-3514c-31,-66 -55,-121 -53,-123c6,-5 186,191 283,307c501,600 925,1415 1265,2430c132,396 196,615 304,1043c45,180 85,331 89,334c11,11 227,-142 332,-235c231,-206 440,-515 567,-838c59,-150 67,-126 -85,-250c-424,-345 -824,-751 -1135,-1152c-92,-118 -283,-386 -283,-397c0,-4 28,19 63,50c335,303 930,643 1627,928c308,125 989,366 1177,416l43,12l-60,119c-503,1004 -1490,2158 -2895,3385c-279,243 -277,242 -271,214z"></path><path d="M30376,40037c-133,-380 -361,-832 -584,-1157c-305,-444 -686,-843 -1108,-1160c-477,-358 -1051,-646 -1529,-766c-650,-163 -1209,-369 -1795,-660c-606,-302 -1136,-645 -1647,-1066c-285,-234 -442,-383 -602,-568c-553,-642 -988,-1047 -1466,-1364c-199,-132 -308,-195 -477,-275c-134,-64 -158,-73 -158,-65c0,3 29,38 64,78c146,164 336,432 461,650c322,564 522,1253 541,1871c3,107 1,153 -5,140c-5,-11 -31,-69 -57,-129c-204,-480 -579,-891 -1038,-1141c-66,-35 -97,-46 -166,-55c-619,-82 -1180,-428 -1532,-946c-94,-138 -126,-204 -173,-364c-120,-402 -341,-930 -568,-1359c-42,-80 -75,-146 -73,-148c2,-3 30,9 63,25c321,162 707,269 1093,303c137,12 489,6 580,-9l45,-8l-75,-13c-681,-117 -1354,-366 -1942,-721c-90,-54 -164,-97 -165,-96c-1,1 9,33 23,71c38,103 91,314 116,460c20,114 23,164 22,405c0,307 -12,412 -79,665c-31,119 -87,291 -104,323c-5,8 -17,-35 -30,-100c-194,-988 -662,-1969 -1306,-2744c-105,-125 -136,-187 -209,-412c-209,-650 -98,-1248 339,-1827c97,-128 255,-302 372,-410l81,-75l104,-24c162,-39 279,-49 476,-43c134,4 205,12 292,30c174,37 164,30 200,144c17,54 41,144 53,200l23,101l289,214c160,118 295,217 302,221c7,4 53,3 104,-4c278,-33 581,80 785,293c148,155 229,328 255,549l12,104l72,80c114,129 152,177 249,323c83,124 225,387 214,397c-2,2 -24,-20 -48,-51c-132,-166 -358,-291 -587,-324c-75,-11 -85,-10 -160,13c-439,139 -923,-91 -1099,-523c-75,-185 -83,-432 -20,-608l16,-44l-77,-96c-62,-78 -244,-302 -273,-335c-3,-4 -2,23 2,60c4,38 12,230 17,428c10,354 19,462 56,622c152,664 659,1064 1495,1177c143,20 396,36 557,36c141,0 279,25 628,115c1108,284 1971,793 2591,1529c71,84 224,288 224,298c0,4 -75,-40 -166,-97c-560,-352 -1097,-564 -1660,-654c-71,-12 -143,-21 -158,-21c-33,0 -36,-9 51,200c604,1459 1768,2615 3458,3436c189,91 224,105 350,134c1021,237 2100,749 3053,1448c83,61 153,108 156,104c13,-12 6,-461 -9,-587c-76,-653 -338,-1249 -822,-1872c-511,-659 -1321,-1340 -2325,-1958c-70,-43 -127,-79 -125,-81c1,-1 79,-7 172,-13c2961,-202 5238,-902 6851,-2109c1633,-1220 2580,-2964 2833,-5217c29,-250 49,-519 56,-725c3,-96 8,-187 10,-203c4,-22 -19,-3 -123,105c-164,170 -361,362 -487,474c-921,822 -1984,1376 -3162,1648c-89,21 -140,29 -132,21c8,-7 82,-67 165,-133c577,-458 1119,-1001 1554,-1557c740,-945 1274,-2044 1575,-3245c145,-577 233,-1153 287,-1880c15,-204 17,-1341 2,-1537c-5,-67 -6,-119 -3,-115c9,9 67,191 118,367c125,437 218,916 266,1375c52,506 52,1071 -1,1595c-58,581 -207,1251 -398,1789c-25,70 -46,131 -46,135c1,19 363,-614 544,-949c192,-356 494,-960 608,-1220c20,-44 20,-45 30,-20c24,60 141,507 192,731c206,907 299,1736 299,2669c0,525 -21,896 -79,1390c-132,1137 -432,2266 -879,3315c-154,362 -388,746 -729,1200c-389,519 -892,1039 -1403,1452c-1244,1006 -2764,1629 -4368,1788c-88,9 -161,17 -162,19c-2,1 27,41 63,87c392,500 732,1102 967,1714c538,1403 585,2954 133,4385c-57,181 -161,469 -174,482c-4,4 -25,-43 -46,-105z"></path><path d="M24090,31522c-289,-425 -638,-799 -995,-1068c-454,-342 -985,-569 -1535,-658c-245,-39 -445,-140 -615,-311c-103,-102 -184,-218 -250,-356c-47,-101 -130,-337 -121,-346c3,-3 76,-45 162,-94l156,-88l159,99c144,91 163,100 207,100c164,0 420,-124 672,-327c175,-140 477,-450 700,-718c97,-116 196,-188 395,-285c233,-113 427,-162 650,-163c290,-1 555,86 831,272c113,76 147,103 346,279c273,242 760,485 1311,657c64,20 117,38 117,40c0,2 -46,41 -102,86c-425,342 -881,499 -1330,460c-212,-18 -432,-73 -628,-155c-44,-19 -80,-32 -80,-30c0,8 244,288 363,416c665,716 1388,1181 2097,1348c53,13 54,14 25,22c-163,45 -504,99 -749,119c-188,15 -605,7 -776,-15c-496,-64 -912,-192 -1372,-422l-170,-85l61,72c169,201 319,489 426,820c37,113 118,419 113,424c-2,2 -32,-40 -68,-93z"></path><path d="M27440,30543c-509,-29 -1055,-208 -1585,-521c-199,-117 -613,-404 -627,-435c-1,-4 76,-41 172,-82c414,-178 905,-446 1396,-762l169,-109l50,13c284,75 740,89 1245,38c242,-25 653,-84 835,-120l70,-14l-80,5c-421,26 -973,22 -1324,-11c-976,-91 -1711,-367 -2263,-849c-32,-27 -56,-51 -54,-53c1,-2 63,15 137,37c640,193 1226,290 1759,290c343,0 579,-27 866,-100c245,-62 395,-123 674,-275c976,-530 2295,-680 3955,-449c255,35 701,111 825,140c18,4 -19,18 -135,49c-904,242 -1808,721 -2705,1433c-257,204 -449,371 -736,637c-187,175 -293,264 -459,390c-708,536 -1449,790 -2185,748z"></path><path d="M21165,28435c-210,-100 -445,-118 -674,-52l-82,24l-127,-42c-811,-273 -1255,-686 -1342,-1250c-7,-45 -13,-193 -14,-340c-2,-286 -7,-319 -72,-522c-40,-126 -152,-361 -239,-503c-145,-236 -323,-464 -577,-740c-68,-74 -218,-247 -333,-385c-574,-687 -1030,-1189 -1517,-1671c-444,-439 -765,-715 -1089,-936c-110,-75 -146,-84 -279,-67c-154,19 -298,83 -442,197l-80,64l-40,-18c-54,-24 -125,-95 -148,-147c-46,-105 -44,-245 6,-419c13,-46 334,-283 524,-387c212,-117 491,-222 731,-275c345,-77 776,19 1065,238c32,24 115,104 183,178c720,773 946,1017 1307,1418c317,353 699,790 926,1061l198,236l15,74c119,571 625,1119 1505,1631c164,96 360,202 360,195c0,-2 -57,-51 -127,-108c-586,-476 -1014,-978 -1267,-1488c-65,-131 -111,-240 -104,-246c8,-9 191,-42 328,-60c170,-23 542,-31 711,-15c168,15 330,42 483,80c65,17 121,30 125,30c17,-1 -118,-79 -234,-136c-217,-106 -399,-154 -656,-174c-260,-20 -591,23 -892,114l-48,14l-112,-136c-725,-881 -1240,-1480 -1516,-1760l-101,-104l30,-91c42,-124 104,-245 163,-318c27,-34 45,-60 40,-58c-5,2 -95,57 -201,122c-170,105 -193,117 -210,105c-60,-43 -781,-712 -775,-719c4,-4 117,-58 250,-120c133,-62 241,-114 239,-116c-1,-2 -144,11 -317,28c-411,41 -432,41 -517,-2c-151,-77 -209,-241 -141,-399c52,-121 381,-355 665,-474c104,-43 283,-93 419,-117c167,-29 510,-34 560,-7c54,29 104,101 119,173c8,38 -18,138 -46,177l-21,30l34,33c19,18 697,645 1508,1394l1473,1361l137,44c382,124 737,174 1156,163c458,-12 867,-103 1292,-288l52,-23l118,37c156,49 303,83 465,108c168,26 568,37 743,20l118,-12l39,28c214,155 453,282 652,347c127,42 304,80 435,95c51,6 95,12 97,14c5,5 -146,115 -261,190c-526,342 -1158,528 -1795,527c-147,0 -205,-4 -420,-25c-36,-3 49,25 240,80c561,162 1078,330 1575,510c429,156 1021,391 955,380c-254,-43 -430,-53 -619,-35c-484,44 -917,240 -1283,579c-111,102 -272,308 -361,461l-26,45l242,1c403,1 709,58 1072,201c530,208 982,563 1319,1036c27,37 46,70 44,72c-2,3 -44,-13 -94,-34c-504,-218 -1096,-250 -1620,-90l-101,31l-59,-48c-141,-114 -385,-250 -554,-307c-343,-116 -707,-137 -1049,-61c-326,73 -609,219 -861,444c-155,138 -340,296 -518,438c-260,209 -681,523 -698,521c-5,0 -31,-11 -59,-24zM23557,24224c-3,-3 -12,-4 -19,-1c-8,3 -5,6 6,6c11,1 17,-2 13,-5z"></path><path d="M16830,27554c-205,-256 -345,-557 -415,-889c-8,-38 -15,-78 -15,-89c0,-31 -371,-561 -715,-1021c-951,-1271 -1716,-1995 -2307,-2185c-466,-150 -633,-767 -310,-1152c98,-118 304,-265 520,-373c120,-59 300,-135 322,-135c13,0 13,1 -9,197c-11,92 -25,233 -31,313l-10,145l61,196l61,196l72,-72c74,-75 214,-190 354,-292c104,-77 178,-98 332,-97c123,0 189,21 270,85c45,36 140,150 140,168c0,4 -25,18 -55,30c-164,68 -277,218 -319,423c-21,103 -20,132 8,214c269,784 835,1538 1694,2255c377,315 918,697 1272,898c365,208 587,389 716,583c63,94 104,212 104,301v67l-37,-16c-231,-99 -511,-154 -786,-154c-166,0 -261,9 -435,41l-113,21l-38,52c-21,28 -81,112 -133,186c-53,74 -104,146 -115,159l-20,24z"></path><path d="M27186,27339c-206,-277 -606,-667 -925,-903c-292,-217 -690,-443 -998,-567c-46,-18 -83,-36 -83,-40c0,-3 30,-9 68,-12c37,-4 153,-16 257,-26c736,-77 1425,-110 1894,-91c146,6 306,15 356,20c49,5 90,8 92,6c4,-4 -247,-225 -392,-346c-528,-441 -1093,-819 -1659,-1109c-94,-48 -172,-92 -174,-96c-2,-4 68,-29 155,-56c877,-264 1652,-730 2148,-1289c610,-688 939,-1494 1051,-2580c21,-211 30,-846 15,-1106c-41,-696 -158,-1423 -352,-2198c-27,-109 -49,-200 -47,-201c5,-6 204,287 306,450c352,564 587,1056 777,1630c316,951 390,1876 229,2845c-146,882 -517,1824 -1067,2709l-75,120l79,-40c490,-246 905,-625 1200,-1095c529,-845 724,-2021 588,-3559c-21,-246 -67,-627 -98,-815c-10,-63 -17,-116 -16,-118c4,-5 94,226 180,463c651,1785 890,3268 719,4460c-273,1910 -1572,3090 -3904,3543c-315,62 -278,62 -324,1z"></path><path d="M31980,25694c0,-2 20,-39 44,-82c63,-112 205,-397 271,-547c276,-625 458,-1257 554,-1931c57,-398 65,-526 65,-1024c0,-497 -8,-626 -64,-1022c-362,-2527 -2030,-4681 -4391,-5668c-296,-124 -432,-169 -627,-206c-1183,-223 -2249,-736 -3172,-1528c-136,-116 -560,-540 -676,-676c-289,-337 -539,-689 -748,-1053c-138,-240 -300,-568 -367,-742l-19,-50l21,25c11,14 67,79 123,145c937,1095 2220,1878 3630,2215c385,92 699,140 1141,175c2460,195 4618,1587 5801,3741c139,254 171,325 228,506c462,1467 483,2998 60,4475c-307,1077 -842,2069 -1575,2923c-116,136 -299,334 -299,324z"></path><path d="M25850,23103c-152,-15 -410,-73 -543,-123l-57,-21l102,-51c327,-159 649,-411 880,-688c493,-589 707,-1364 592,-2138c-31,-211 -118,-504 -198,-672c-15,-30 -25,-48 -22,-39c322,1137 -119,2328 -1104,2984c-394,262 -946,435 -1387,435h-113l149,-75c443,-224 820,-559 1096,-973c614,-924 643,-2116 74,-3075c-121,-204 -206,-311 -529,-668c-885,-979 -1687,-2029 -2258,-2957c-1249,-2030 -1714,-3877 -1391,-5527c25,-128 90,-397 95,-393c2,2 15,76 29,163c222,1383 656,2651 1320,3865c488,892 1078,1713 1835,2555c169,187 783,805 984,990c464,425 940,819 1461,1207c418,311 504,380 650,528c139,139 243,263 338,398c289,413 475,918 527,1435c14,130 8,511 -9,717c-51,588 -285,1081 -707,1491c-352,341 -807,558 -1307,624c-107,14 -403,19 -507,8z"></path><path d="M21970,22933c-90,-5 -328,-33 -425,-49c-433,-72 -905,-340 -1215,-689c-44,-49 -78,-90 -76,-92c2,-2 41,12 87,31c300,123 588,184 910,193c414,12 752,-61 1109,-238c491,-244 876,-637 1130,-1154c119,-242 191,-453 243,-715c45,-224 52,-302 51,-575c0,-287 -15,-424 -73,-661c-136,-555 -460,-1093 -872,-1449c-459,-396 -835,-891 -1119,-1470c-274,-560 -428,-1107 -492,-1755c-19,-199 -14,-919 8,-898c1,2 10,67 19,143c99,858 394,1581 905,2220c217,271 440,502 960,995c679,643 965,963 1209,1351c419,668 613,1428 599,2339l-4,255l-36,135c-265,991 -849,1648 -1722,1935c-375,124 -774,173 -1196,148z"></path><path d="M28035,18107c-735,-399 -1379,-825 -2018,-1336c-623,-498 -1265,-1118 -1785,-1726c-836,-976 -1534,-2077 -2046,-3225c-48,-108 -51,-120 -27,-90c16,19 101,125 189,235c504,633 1107,1258 1712,1776c936,801 2014,1432 3230,1889l205,78l7,133c45,843 273,1583 718,2332c12,20 18,37 13,37c-4,0 -93,-47 -198,-103z"></path></g></g></g></g></g></g></svg>